<?xml version="1.0" encoding="UTF-8" standalone="no"?>
<!-- Created with Inkscape (http://www.inkscape.org/) -->

<svg
   version="1.1"
   id="svg2"
   width="1538"
   height="1538"
   viewBox="0 0 1538 1538"
   sodipodi:docname="qs-logo.svg"
   inkscape:version="1.1.2 (0a00cf5339, 2022-02-04)"
   xmlns:inkscape="http://www.inkscape.org/namespaces/inkscape"
   xmlns:sodipodi="http://sodipodi.sourceforge.net/DTD/sodipodi-0.dtd"
   xmlns="http://www.w3.org/2000/svg"
   xmlns:svg="http://www.w3.org/2000/svg">
  <defs
     id="defs6" />
  <sodipodi:namedview
     id="namedview4"
     pagecolor="#ffffff"
     bordercolor="#666666"
     borderopacity="1.0"
     inkscape:pageshadow="2"
     inkscape:pageopacity="0.0"
     inkscape:pagecheckerboard="0"
     showgrid="false"
     inkscape:zoom="0.40962289"
     inkscape:cx="769"
     inkscape:cy="769"
     inkscape:window-width="1872"
     inkscape:window-height="1051"
     inkscape:window-x="48"
     inkscape:window-y="0"
     inkscape:window-maximized="1"
     inkscape:current-layer="g8" />
  <g
     inkscape:groupmode="layer"
     inkscape:label="Image"
     id="g8">
    <g
       id="g140"
       transform="translate(1.2107441,2.0223726)">
      <path
         style="fill:#9392b0"
         d="m 723.5,1531.9027 c -17.4988,-1.0864 -39.33889,-3.4373 -60.5,-6.5124 C 462.28481,1496.2225 281.32198,1389.184 160.0694,1227.9097 99.64431,1147.5402 54.515515,1053.5792 30.128294,957.36414 18.890221,913.0265 12.89929,878.03691 8.3209562,830 5.5994968,801.44583 5.8352843,734.12209 8.7587429,705 19.102617,601.95929 45.076711,511.7723 89.543493,424.5 163.53585,279.27961 279.0766,163.74348 424.5,89.556899 511.51395,45.167427 602.2438,19.172726 708,8.3322735 733.38383,5.7303248 804.86561,5.7260092 830.5,8.3248778 936.7458,19.0963 1024.4073,44.219788 1114,89.575054 1218.6303,142.54291 1308.3745,217.76336 1378.7747,311.5 c 76.6162,102.01315 126.4579,220.95827 145.6931,347.69053 6.2727,41.32843 7.019,52.99186 7.0259,109.80947 0.01,53.69542 -0.2315,58.56334 -4.5702,93.5 -21.1842,170.5807 -101.0038,331.6132 -224.0536,452.018 -131.5474,128.7197 -305.73593,205.9719 -490.3699,217.4778 -18.41407,1.1476 -69.88329,1.0937 -89,-0.093 z m 485.3233,-470.3439 c -0.4263,-1.9002 -406.14812,-704.56172 -406.81166,-704.54898 -0.2814,0.005 -5.32637,8.39679 -11.21104,18.64752 l -10.69939,18.6377 1.58612,3.10248 c 0.87236,1.70636 82.33361,142.97677 181.02501,313.93424 C 1063.28,885.53945 1141.912,1022.7869 1141.607,1023.5818 1141.1385,1024.8026 1089.0091,1025 767.1151,1025 H 393.16742 l -10.58371,18.3319 c -5.82104,10.0825 -10.58371,18.6325 -10.58371,19 0,0.3674 188.358,0.6681 418.57332,0.6681 363.95368,0 418.53118,-0.1881 418.24998,-1.4412 z"
         id="path154" />
      <path
         style="fill:#5172ac"
         d="m 724.5,1530.3175 c -25.1561,-1.6199 -68.17701,-7.3635 -96.7756,-12.9204 C 493.6917,1491.3539 371.70938,1431.6969 267.75846,1341.3513 238.55752,1315.9722 195.88092,1270.7248 170.6641,1238.4079 122.02526,1176.0743 82.195188,1104.3606 55.016005,1030.1844 23.21865,943.40452 6.5047525,846.19682 8.3025703,758.5 10.201512,665.8704 28.653392,575.02471 63.084152,488.78923 150.51664,269.80532 334.74127,103.31509 561.27432,38.557372 639.08267,16.31474 727.34885,4.6343609 793.21476,7.8643898 840.4596,10.181252 900.83633,19.152663 949,31.012606 1084.1899,64.302109 1208.0017,134.07183 1306.5318,232.48695 1422.7364,348.55597 1499.1478,501.60696 1522.4659,665 c 6.2226,43.6024 6.9818,54.97546 7.0089,105 0.027,49.5117 -0.4384,57.12497 -6.0191,98.5 -15.7227,116.56633 -56.2306,224.3968 -120.9634,322 -116.8094,176.1237 -301.2274,295.3557 -511.16274,330.4827 -21.64442,3.6217 -53.87367,7.5976 -72.82956,8.9847 -12.50006,0.9147 -81.25562,1.1708 -94,0.3501 z m 485.8927,-467.1438 C 1211.1809,1061.8983 803.56862,356.5 802.04341,356.5 c -1.54571,0 -23.31432,37.36043 -22.69455,38.94959 0.22531,0.57773 81.69027,141.8288 181.03325,313.89128 99.34299,172.06248 180.37079,313.24993 180.06169,313.75003 -0.3355,0.5428 -151.11477,0.9124 -374.25282,0.9172 l -373.69098,0.01 -10.75,18.7444 c -5.9125,10.3094 -10.75,19.3058 -10.75,19.9919 0,0.9947 85.00648,1.2475 419.44098,1.2475 230.69252,0 419.67082,-0.3719 419.95172,-0.8263 z"
         id="path152" />
      <path
         style="fill:#4db44c"
         d="m 716.5,1528.9062 c -34.54111,-2.8561 -91.56946,-12.6568 -131,-22.5132 C 425.45878,1466.3877 280.89758,1373.2743 177.55256,1243.6297 93.196748,1137.8068 38.501069,1011.0721 19.108091,876.5 12.781317,832.59713 10.604417,805.58964 10.604417,771 c 0,-27.23206 0.371523,-35.09049 2.74207,-58 C 23.008139,619.62755 40.400737,549.59955 72.70604,474 153.31199,285.36925 306.93761,136.84273 497,63.78909 556.38943,40.961777 612.17759,26.956491 687.5,15.965199 c 11.55,-1.685413 24.15,-3.720715 28,-4.522893 11.95307,-2.4905142 40.0455,-3.7477432 67,-2.9984699 13.75,0.3822185 27.475,1.0669357 30.5,1.5215939 3.025,0.454658 16.3,2.640247 29.5,4.856865 13.2,2.216618 31.65,5.223766 41,6.682552 187.9872,29.329741 358.598,128.326973 476.7646,276.643633 75.8503,95.20335 127.5325,206.43729 151.6375,326.36463 4.8715,24.23663 9.0769,53.23658 12.7594,87.98689 2.4171,22.8093 2.7552,29.98837 2.7552,58.5 0,28.51163 -0.3381,35.6907 -2.7552,58.5 -5.4454,51.3866 -11.7361,88.29213 -21.6463,126.99287 -39.7433,155.20213 -124.5811,290.80413 -246.5152,394.02163 -96.5697,81.7466 -216.212,139.4102 -341,164.3507 -17.66088,3.5298 -61.17959,10.4999 -79.86156,12.791 -15.38467,1.8866 -100.62308,2.781 -119.13844,1.25 z m 493.4431,-464.8499 c 1.1326,-0.7165 1.2071,-1.4128 0.3464,-3.2347 -3.1522,-6.6722 -407.16023,-705.27851 -408.0353,-705.5702 -1.00909,-0.33636 -21.96538,34.92814 -22.91549,38.56138 -0.31099,1.18923 63.04671,111.86751 180.09075,314.59688 C 1058.7433,880.42886 1140,1021.5832 1140,1022.0859 c 0,0.5505 -148.29889,0.9141 -372.80887,0.9141 -296.73158,0 -373.13366,0.2551 -374.40047,1.25 -0.87537,0.6875 -6.35056,9.5419 -12.16707,19.6765 -8.0818,14.0816 -10.31648,18.7386 -9.47709,19.75 0.90807,1.0942 73.54886,1.3208 419.22594,1.3082 250.46476,-0.01 418.70626,-0.3815 419.57066,-0.9284 z m -105.1019,-65.90397 c -1.8377,-3.21622 -6.7162,-11.76466 -10.8412,-18.99652 l -7.5,-13.14885 -362,-0.0188 c -224.82637,-0.0117 -362.56483,-0.3759 -363.49059,-0.96119 -1.31236,-0.82972 -1.29668,-1.27627 0.13115,-3.73469 C 430.03468,842.67095 766.45413,258.88421 766.71575,257.5 767.09812,255.47687 747.24203,219.91401 745.38432,219.29477 744.60585,219.03528 294.1898,997.73585 292.35954,1002.5054 291.85125,1003.83 338.21102,1004 699.98421,1004 h 408.19819 z"
         id="path150" />
      <path
         style="fill:#484679"
         d="m 716.5,1528.9062 c -34.54111,-2.8561 -91.56946,-12.6568 -131,-22.5132 C 425.45878,1466.3877 280.89758,1373.2743 177.55256,1243.6297 93.196748,1137.8068 38.501069,1011.0721 19.108091,876.5 12.781317,832.59713 10.604417,805.58964 10.604417,771 c 0,-27.23206 0.371523,-35.09049 2.74207,-58 C 23.008139,619.62755 40.400737,549.59955 72.70604,474 153.31199,285.36925 306.93761,136.84273 497,63.78909 556.38943,40.961777 612.17759,26.956491 687.5,15.965199 c 11.55,-1.685413 24.15,-3.720715 28,-4.522893 11.95307,-2.4905142 40.0455,-3.7477432 67,-2.9984699 13.75,0.3822185 27.475,1.0669357 30.5,1.5215939 3.025,0.454658 16.3,2.640247 29.5,4.856865 13.2,2.216618 31.65,5.223766 41,6.682552 187.9872,29.329741 358.598,128.326973 476.7646,276.643633 75.8503,95.20335 127.5325,206.43729 151.6375,326.36463 4.8715,24.23663 9.0769,53.23658 12.7594,87.98689 2.4171,22.8093 2.7552,29.98837 2.7552,58.5 0,28.51163 -0.3381,35.6907 -2.7552,58.5 -5.4454,51.3866 -11.7361,88.29213 -21.6463,126.99287 -39.7433,155.20213 -124.5811,290.80413 -246.5152,394.02163 -96.5697,81.7466 -216.212,139.4102 -341,164.3507 -17.66088,3.5298 -61.17959,10.4999 -79.86156,12.791 -15.38467,1.8866 -100.62308,2.781 -119.13844,1.25 z m 493.4431,-464.8499 c 1.1326,-0.7165 1.2071,-1.4128 0.3464,-3.2347 -3.1522,-6.6722 -407.16023,-705.27851 -408.0353,-705.5702 -1.00909,-0.33636 -21.96538,34.92814 -22.91549,38.56138 -0.31099,1.18923 63.04671,111.86751 180.09075,314.59688 C 1058.7433,880.42886 1140,1021.5832 1140,1022.0859 c 0,0.5505 -148.29889,0.9141 -372.80887,0.9141 -296.73158,0 -373.13366,0.2551 -374.40047,1.25 -0.87537,0.6875 -6.35056,9.5419 -12.16707,19.6765 -8.0818,14.0816 -10.31648,18.7386 -9.47709,19.75 0.90807,1.0942 73.54886,1.3208 419.22594,1.3082 250.46476,-0.01 418.70626,-0.3815 419.57066,-0.9284 z m -105.1019,-65.90397 c -1.8377,-3.21622 -6.7162,-11.76466 -10.8412,-18.99652 l -7.5,-13.14885 -362,-0.0188 c -224.82637,-0.0117 -362.56483,-0.3759 -363.49059,-0.96119 -1.31236,-0.82972 -1.29668,-1.27627 0.13115,-3.73469 C 430.03468,842.67095 766.45413,258.88421 766.71575,257.5 767.09812,255.47687 747.24203,219.91401 745.38432,219.29477 744.60585,219.03528 294.1898,997.73585 292.35954,1002.5054 291.85125,1003.83 338.21102,1004 699.98421,1004 H 1108.1824 Z M 1221.1754,964 C 1220.7501,962.03495 802.7436,238 802.03441,238 800.89837,238 393.9124,944.04924 394.5002,945.00033 394.88085,945.61623 403.34423,946 416.54647,946 h 21.42844 l 2.33993,-3.75 c 1.28696,-2.0625 82.57986,-142.8 180.6509,-312.75 98.07103,-169.95 178.92371,-309.65893 179.67262,-310.46429 1.19559,-1.28571 1.53031,-1.28571 2.74474,0 0.7607,0.80536 84.74125,145.91429 186.62343,322.46429 101.88217,176.55 185.93727,321.79606 186.78907,322.76902 1.4061,1.60605 3.5367,1.74424 23.1266,1.5 18.5659,-0.23147 21.5325,-0.4784 21.2532,-1.76902 z"
         id="path148" />
      <path
         style="fill:#294078"
         d="M 701.5,1519.9281 C 631.50564,1509.8397 601.60823,1503.8498 559.34423,1491.4477 404.30517,1445.9524 266.69492,1350.5309 170.04438,1221.5 87.910277,1111.8489 37.784497,984.10806 23.089798,847 19.318942,811.81625 18.65076,800.37642 18.65076,771 c 0,-30.42635 0.702156,-41.86031 4.882072,-79.5 8.38054,-75.46586 26.595017,-145.04867 56.07698,-214.22485 C 131.86622,354.66122 216.74329,247.0576 323.7899,167.71375 401.09559,110.41413 488.93339,68.563853 583.5,43.975016 614.02104,36.039054 657.96916,27.491711 689,23.456623 695.875,22.562634 709.5717,20.519171 719.4371,18.915594 736.55108,16.133796 738.82742,16 769.04164,16 h 31.66743 l 23.89546,3.917702 c 13.14251,2.154736 34.69547,5.546872 47.89547,7.53808 30.27337,4.566712 53.27813,9.174302 80.08306,16.039722 C 1128.5516,88.565515 1280.8764,194.34832 1384.5825,343.5 c 58.2844,83.82562 99.9047,181.93528 119.8427,282.5 11.4236,57.61928 17.0471,121.87961 14.7237,168.25 -6.7001,133.71813 -42.0039,252.7361 -107.443,362.2167 -90.1662,150.8492 -232.2758,266.3269 -398.6881,323.9723 -52.01487,18.018 -92.04968,27.2056 -163.49859,37.5212 l -27.98079,4.0398 -53.51921,-0.099 c -46.67265,-0.086 -55.18226,-0.3387 -66.51921,-1.9728 z m 510.0904,-456.3032 C 1212.3243,1061.7126 803.89006,354.5 802.0518,354.5 c -0.82901,0 -6.32971,8.46027 -12.8815,19.81219 -10.35293,17.93794 -11.32768,20.04698 -10.30384,22.29407 0.62195,1.36503 81.90643,142.3899 180.63218,313.3886 C 1058.2244,880.99356 1139,1021.3731 1139,1021.9495 c 0,0.7282 -114.0063,1.1245 -373.68912,1.2992 L 391.62175,1023.5 380.8575,1042 c -5.92033,10.175 -10.78523,19.5125 -10.81087,20.75 L 370,1065 h 420.53138 c 355.90062,0 420.61252,-0.2113 421.05902,-1.3751 z m -104.2044,-59.4404 c 0.5612,-0.9081 -20.0536,-37.25852 -21.7881,-38.41919 -0.6038,-0.40408 -164.1104,-0.74158 -363.3479,-0.75 C 506.96242,965.00621 360,964.6331 360,964.09562 c 0,-0.49741 91.42594,-159.23491 203.16875,-352.75 C 674.91157,417.83053 766.50766,258.6 766.71563,257.5 c 0.38249,-2.02312 -19.47347,-37.58595 -21.3313,-38.20522 -0.52039,-0.17347 -31.93098,53.35175 -69.80132,118.94492 -37.87033,65.59316 -139.70644,241.98006 -226.30246,391.97088 -86.59602,149.99082 -157.15823,273.17832 -156.80491,273.75002 0.78053,1.2629 814.13006,1.4864 814.91036,0.2239 z M 1221.6385,964.5 c 0.4809,-1.58263 -418.20879,-726 -419.60438,-726 -1.34894,0 -406.96069,701.50544 -407.77686,705.25 l -0.49041,2.25 h 21.96159 c 19.66141,0 22.12317,-0.18329 23.50433,-1.75 0.84851,-0.9625 82.66382,-142.27648 181.81179,-314.03107 99.14797,-171.75459 180.67173,-312.14683 181.16391,-311.98277 0.49218,0.16406 84.7907,145.61032 187.33004,323.21391 102.53939,177.6036 187.00359,323.28136 187.69829,323.72838 1.8466,1.18815 44.0304,0.54359 44.4017,-0.67845 z"
         id="path146" />
      <path
         style="fill:#2c316b"
         d="M 701.5,1519.9281 C 631.50564,1509.8397 601.60823,1503.8498 559.34423,1491.4477 404.30517,1445.9524 266.69492,1350.5309 170.04438,1221.5 87.910277,1111.8489 37.784497,984.10806 23.089798,847 19.318942,811.81625 18.65076,800.37642 18.65076,771 c 0,-30.42635 0.702156,-41.86031 4.882072,-79.5 8.38054,-75.46586 26.595017,-145.04867 56.07698,-214.22485 C 131.86622,354.66122 216.74329,247.0576 323.7899,167.71375 401.09559,110.41413 488.93339,68.563853 583.5,43.975016 614.02104,36.039054 657.96916,27.491711 689,23.456623 695.875,22.562634 709.5717,20.519171 719.4371,18.915594 736.55108,16.133796 738.82742,16 769.04164,16 h 31.66743 l 23.89546,3.917702 c 13.14251,2.154736 34.69547,5.546872 47.89547,7.53808 30.27337,4.566712 53.27813,9.174302 80.08306,16.039722 C 1128.5516,88.565515 1280.8764,194.34832 1384.5825,343.5 c 58.2844,83.82562 99.9047,181.93528 119.8427,282.5 11.4236,57.61928 17.0471,121.87961 14.7237,168.25 -6.7001,133.71813 -42.0039,252.7361 -107.443,362.2167 -90.1662,150.8492 -232.2758,266.3269 -398.6881,323.9723 -52.01487,18.018 -92.04968,27.2056 -163.49859,37.5212 l -27.98079,4.0398 -53.51921,-0.099 c -46.67265,-0.086 -55.18226,-0.3387 -66.51921,-1.9728 z m 124.5371,-26.4311 c 156.78689,-12.7439 300.351,-73.0489 419.9629,-176.4081 29.3117,-25.3289 66.94,-64.8093 92.5342,-97.0889 81.9578,-103.3657 134.7287,-229.46472 150.8647,-360.5 4.2326,-34.37162 5.1011,-49.86437 5.1011,-91 0,-41.16708 -0.8717,-56.69616 -5.1082,-91 C 1466.0979,488.88426 1368.9135,316.50291 1219,197.89109 1115.149,115.72402 988.84788,62.879927 858.5,47.058735 799.17592,39.858175 735.44383,39.86771 677,47.085888 464.26709,73.359729 273.40101,193.45059 156.32406,374.68952 131.93605,412.44295 108.44527,458.06289 92.313661,499 57.543611,587.23581 41,674.28583 41,769.00486 c 0,140.87048 39.42906,275.46444 115.21993,393.31154 5.94832,9.2491 12.71974,19.3649 15.0476,22.4797 2.32786,3.1148 4.90747,6.6397 5.73247,7.833 0.825,1.1933 3.16731,4.5775 5.20512,7.5203 5.46163,7.8872 24.36234,31.3594 38.1285,47.3506 15.58533,18.1044 51.1787,53.6788 69.66638,69.6293 128.13854,110.5533 281.72295,171.2008 451.5,178.2885 16.00525,0.6682 66.91692,-0.4886 84.5371,-1.9208 z M 741,1457.4233 C 669.33803,1453.5969 612.86371,1443.4317 551.5,1423.3138 502.074,1407.1097 443.58499,1379.2315 398,1350.1496 334.28959,1309.5043 274.27822,1255.0068 225.53274,1193.5289 185.22276,1142.6899 151.48919,1083.827 125.79896,1019.5 84.712853,916.62249 70.035372,798.12209 84.058084,682.5 100.35197,548.15126 157.67928,420.38595 248.50381,316 263.48158,298.78583 300.49965,261.98382 318,246.90944 352.76697,216.962 385.83353,193.35634 422.663,172.19231 514.66348,119.32427 608.07122,90.225813 714,81.434753 c 26.21396,-2.175504 81.6432,-2.194328 107.37362,-0.03647 95.81352,8.035334 179.68088,31.876927 261.62638,74.374477 66.8166,34.65158 118.1654,72.32284 172.019,126.19914 61.9914,62.01745 106.4842,126.46092 142.9886,207.10512 31.0187,68.52544 49.8338,142.51491 57.1965,224.92298 1.7244,19.3011 1.7205,88.44579 -0.01,109 -8.8781,105.68268 -38.2586,199.5848 -91.2057,291.5 -28.3546,49.223 -61.5742,92.6361 -103.9774,135.8832 -62.7458,63.9945 -128.0596,109.6452 -211.5148,147.8368 -67.94257,31.0927 -144.44422,50.6772 -224,57.3444 -16.40123,1.3745 -70.15823,2.5712 -83.5,1.8589 z m 470.5904,-393.7984 C 1212.3243,1061.7126 803.89006,354.5 802.0518,354.5 c -0.82901,0 -6.32971,8.46027 -12.8815,19.81219 -10.35293,17.93794 -11.32768,20.04698 -10.30384,22.29407 0.62195,1.36503 81.90643,142.3899 180.63218,313.3886 C 1058.2244,880.99356 1139,1021.3731 1139,1021.9495 c 0,0.7282 -114.0063,1.1245 -373.68912,1.2992 L 391.62175,1023.5 380.8575,1042 c -5.92033,10.175 -10.78523,19.5125 -10.81087,20.75 L 370,1065 h 420.53138 c 355.90062,0 420.61252,-0.2113 421.05902,-1.3751 z m -104.1722,-58.2319 c 0.87,-0.3338 1.5818,-0.9596 1.5818,-1.3905 0,-0.9544 -20.7777,-37.09587 -22.135,-38.5025 -0.6381,-0.66124 -123.75261,-1.16938 -363.42517,-1.5 L 360.97962,963.5 564.48981,611.01763 C 676.42041,417.15233 768,257.77366 768,256.84282 768,253.7828 746.68066,217.91485 745.04865,218.22915 742.70041,218.68138 290.0467,1003.2256 291.2545,1004.75 c 0.7894,0.9963 83.54442,1.25 407.78616,1.25 223.73767,0 407.50754,-0.2731 408.37754,-0.607 z M 1222,964.49357 c 0,-1.66504 -416.24217,-723.11424 -418.55497,-725.45786 -1.26881,-1.28571 -1.61873,-1.28571 -2.86939,0 -3.1927,3.28219 -407.64377,705.29616 -406.81787,706.12206 0.4848,0.4848 10.95428,0.76013 23.2655,0.61184 L 439.40731,945.5 620.12208,632.5 c 99.39313,-172.15 181.25479,-313 181.91482,-313 0.66003,0 84.79757,144.79466 186.97233,321.7659 102.17477,176.97125 186.32657,322.43375 187.00397,323.25 1.8575,2.23817 45.9868,2.21673 45.9868,-0.0223 z"
         id="path144" />
      <path
         style="fill:#131153"
         d="m 707.5,1511.3248 c -9.64617,-0.9652 -60.42642,-8.5497 -72.59555,-10.8428 C 525.8848,1479.939 423.38224,1435.6286 332.71312,1369.8491 283.08609,1333.8453 230.99281,1283.9544 191.38915,1234.5 145.85205,1177.6364 109.49836,1115.2622 81.389883,1045.7678 73.413905,1026.0482 59.587042,984.99078 54.021455,964.5 43.084513,924.23355 35.337232,881.06913 30.419435,833 28.272252,812.0123 27.396948,751.45743 28.921856,729.39515 37.153635,610.29834 69.043445,503.82203 126.82743,402.5 219.03257,240.82176 370.44548,119.10331 549.13586,63.012917 594.01511,48.925449 641.20585,39.070704 710.5,29.315572 729.66072,26.618153 732.1366,26.5 769.5,26.5 h 39 l 24.5,3.812537 c 13.475,2.096895 33.05,5.144819 43.5,6.773165 81.38897,12.68224 152.7899,35.512805 225,71.944118 73.3489,37.00588 132.6625,79.92766 190.5522,137.89164 58.9338,59.00946 103.8314,121.53976 140.4279,195.57854 41.6607,84.28426 65.2038,167.80301 75.1236,266.5 2.5057,24.93077 3.0364,84.91423 0.9777,110.5 -6.9006,85.75853 -24.4978,160.32447 -55.3411,234.5019 -32.2411,77.539 -73.6353,143.869 -130.1164,208.4981 -13.8328,15.8284 -49.3126,51.2056 -65.6239,65.4342 -84.384,73.6094 -180.3046,125.9242 -287,156.5288 -35.40467,10.1555 -61.26643,15.578 -108.36425,22.721 l -27.63575,4.1914 -61.5,0.1748 c -33.825,0.096 -63.3,-0.01 -65.5,-0.2254 z m 120.30221,-16.8053 C 983.90259,1481.8024 1127.4679,1421.3791 1247,1318.0889 c 18.6061,-16.078 53.9992,-51.47 70.0911,-70.0889 79.7851,-92.3147 133.5313,-197.5044 160.9475,-315 5.0702,-21.72866 9.8445,-47.5444 11.4664,-62 0.2159,-1.925 0.66,-5.75 0.9868,-8.5 0.542,-4.5613 0.8723,-7.09864 2.0828,-16 0.2244,-1.65 0.6442,-6.375 0.933,-10.5 0.2888,-4.125 0.7349,-10.425 0.9913,-14 1.1731,-16.35138 1.4339,-25.48708 1.5272,-53.5 0.1392,-41.7405 -0.696,-57.91517 -4.5954,-89 C 1471.0279,516.85573 1398.041,367.69615 1282.4909,252.5 1186.2799,156.58374 1065.2119,89.367623 933.12937,58.536808 902.58533,51.407193 876.35126,47.079459 838.5,42.926162 c -9.92609,-1.089159 -57.57919,-3.11337 -71,-3.015943 -61.18278,0.444151 -111.28256,6.097012 -164.5,18.560872 -41.45242,9.708419 -97.47162,28.212512 -125.49645,41.453607 -3.66994,1.733962 -10.79709,4.949042 -15.83809,7.144602 -5.041,2.19557 -12.31546,5.63233 -16.16546,7.63726 -3.85,2.00492 -11.5,5.96579 -17,8.80194 -5.5,2.83614 -11.6875,6.13197 -13.75,7.32406 -2.0625,1.19209 -5.325,3.06744 -7.25,4.16744 -1.925,1.1 -5.075,2.9 -7,4 -1.925,1.1 -4.9625,2.84199 -6.75,3.87109 -8.31701,4.78828 -35.6726,22.79806 -48.75,32.09498 C 280.02887,221.15501 221.46972,279.6923 174.40237,345.5 c -10.56215,14.76759 -31.01399,46.2124 -36.09743,55.5 -3.28677,6.00503 -5.47944,9.86002 -9.9538,17.5 -2.65846,4.53932 -17.23043,33.94608 -23.53774,47.5 -1.40768,3.025 -3.93166,8.425 -5.60884,12 -4.306826,9.18023 -14.252344,35.2635 -21.734033,57 -39.158612,113.76726 -48.779267,240.6567 -27.332816,360.5 23.460071,131.0955 79.883549,249.2975 167.787779,351.5 15.94937,18.5437 52.37786,55.0007 71.07451,71.1303 56.62348,48.849 114.65952,85.8308 183.0011,116.6124 81.73989,36.8163 172.26798,57.689 267.4989,61.6761 16.63283,0.6963 70.72122,-0.4671 88.30221,-1.8993 z M 743,1456.423 C 658.26767,1451.9024 589.68514,1437.5894 518,1409.466 392.31325,1360.1569 284.90107,1276.2853 207.06093,1166.6727 100.21997,1016.2219 58.278502,829.77589 90.49673,648.5 115.11742,509.97164 182.0734,381.78291 281.94953,281.95928 380.15857,183.80186 507.21393,117.0206 643.5,91.925604 712.16982,79.281107 785.00819,77.242068 854.37362,86.022402 1032.731,108.59903 1197.8968,202.13482 1308.1454,343 c 78.1268,99.82295 126.6953,215.52809 142.2989,339 4.3009,34.03317 5.0494,46.77392 5.0526,86 0,39.64299 -0.9082,55.42116 -5.0503,87.4215 -22.9556,177.3478 -113.0019,338.152 -251.4466,449.0317 -109.1916,87.4511 -237.29057,138.5208 -376.5,150.1006 -16.62538,1.3829 -66.59326,2.5578 -79.5,1.8692 z m 468.8041,-393.0553 C 1212.2626,1060.1531 804.34656,354 802.03117,354 c -1.23441,0 -5.08006,5.77122 -12.89508,19.35182 C 783.01124,383.99532 778,393.58519 778,394.66264 c 0,1.07745 81.17242,142.55663 180.38315,314.39818 L 1138.7663,1021.5 l -373.57755,0.5 -373.57754,0.5 -11.28773,19.5 c -10.71802,18.5158 -12.20909,21.7811 -10.65564,23.3345 0.36732,0.3673 189.92982,0.5548 421.25,0.4167 L 1211.5,1065.5 Z M 1109.6614,1004.5 c 0.1804,-0.55 -4.7363,-9.775 -10.9262,-20.5 L 1087.4809,964.5 725.24046,964 C 526.00819,963.725 362.94788,963.13242 362.8842,962.68315 362.82053,962.23388 454.21756,803.47551 565.98871,609.88676 706.93754,365.76199 769.05158,257.30523 768.69526,255.94266 767.64465,251.92515 746.77998,217 745.43048,217 c -0.77116,0 -2.497,1.6875 -3.83521,3.75 -6.65389,10.25522 -451.01905,781.0648 -451.39353,783.0012 l -0.43536,2.2512 409.78348,-0.2512 c 272.08097,-0.1668 409.89374,-0.5872 410.11154,-1.2512 z M 1223,964.99334 c 0,-1.94108 -416.77942,-725.00266 -419.60154,-727.95763 -1.22792,-1.28571 -1.56651,-1.28571 -2.77647,0 -3.11824,3.31348 -408.69399,707.33429 -408.21047,708.59432 0.68811,1.79317 45.52477,2.03368 47.3047,0.25375 0.61391,-0.61391 82.26641,-141.68541 181.45,-313.49221 99.18358,-171.80681 180.56516,-312.37951 180.84796,-312.38379 0.2828,-0.004 84.2078,144.96682 186.5,322.158 102.29222,177.19118 186.58042,322.76618 187.30722,323.5 1.0252,1.03508 6.4622,1.33422 24.25,1.33422 22.2873,0 22.9286,-0.0561 22.9286,-2.00666 z"
         id="path142" />
    </g>
  </g>
</svg>
